<svg width="144" height="144" viewBox="0 0 144 144" fill="none" xmlns="http://www.w3.org/2000/svg">
<path d="M126 6H18C11.3726 6 6 13.3873 6 22.5V121.5C6 130.613 11.3726 138 18 138H126C132.627 138 138 130.613 138 121.5V22.5C138 13.3873 132.627 6 126 6Z" fill="#D94141"/>
<g filter="url(#filter0_i_55_9)">
<path d="M76.7131 121.999C66.9915 121.999 58.6293 119.939 51.6264 115.82C44.6648 111.659 39.3097 105.892 35.5611 98.5185C31.8537 91.1449 30 82.6591 30 73.0611C30 63.3395 31.8743 54.8125 35.6229 47.4801C39.4126 40.1065 44.7884 34.3601 51.75 30.2408C58.7116 26.0803 66.9915 24 76.5895 24C84.8693 24 92.1193 25.5035 98.3395 28.5106C104.56 31.5178 109.482 35.7401 113.107 41.1776C116.732 46.6151 118.73 53 119.101 60.3324H94.2614C93.5611 55.5952 91.7074 51.7848 88.7003 48.9013C85.7344 45.9766 81.8416 44.5142 77.022 44.5142C72.9439 44.5142 69.3807 45.6264 66.3324 47.8508C63.3253 50.0341 60.9773 53.2266 59.2884 57.4283C57.5994 61.63 56.755 66.7173 56.755 72.6903C56.755 78.7457 57.5788 83.8949 59.2266 88.1378C60.9155 92.3807 63.2841 95.6143 66.3324 97.8388C69.3807 100.063 72.9439 101.175 77.022 101.175C80.0291 101.175 82.7273 100.558 85.1165 99.3217C87.5469 98.0859 89.5447 96.294 91.1101 93.946C92.7166 91.5568 93.767 88.6939 94.2614 85.3572H119.101C118.689 92.6072 116.712 98.9922 113.169 104.512C109.668 109.991 104.827 114.275 98.6484 117.364C92.4695 120.454 85.1577 121.999 76.7131 121.999Z" fill="white"/>
</g>
<defs>
<filter id="filter0_i_55_9" x="30" y="24" width="89.1009" height="98.9986" filterUnits="userSpaceOnUse" color-interpolation-filters="sRGB">
<feFlood flood-opacity="0" result="BackgroundImageFix"/>
<feBlend mode="normal" in="SourceGraphic" in2="BackgroundImageFix" result="shape"/>
<feColorMatrix in="SourceAlpha" type="matrix" values="0 0 0 0 0 0 0 0 0 0 0 0 0 0 0 0 0 0 127 0" result="hardAlpha"/>
<feOffset dy="1"/>
<feGaussianBlur stdDeviation="0.5"/>
<feComposite in2="hardAlpha" operator="arithmetic" k2="-1" k3="1"/>
<feColorMatrix type="matrix" values="0 0 0 0 0 0 0 0 0 0 0 0 0 0 0 0 0 0 0.25 0"/>
<feBlend mode="normal" in2="shape" result="effect1_innerShadow_55_9"/>
</filter>
</defs>
</svg>
