<svg width="96" height="96" viewBox="0 0 96 96" fill="none" xmlns="http://www.w3.org/2000/svg">
<path d="M84 4H12C7.58172 4 4 8.92487 4 15V81C4 87.0751 7.58172 92 12 92H84C88.4183 92 92 87.0751 92 81V15C92 8.92487 88.4183 4 84 4Z" fill="#D94141"/>
<g filter="url(#filter0_i_55_9)">
<path d="M51.142 81.3324C44.661 81.3324 39.0862 79.9593 34.4176 77.2131C29.7765 74.4394 26.2064 70.5947 23.7074 65.679C21.2358 60.7633 20 55.1061 20 48.7074C20 42.2263 21.2495 36.5417 23.7486 31.6534C26.2751 26.7377 29.8589 22.9067 34.5 20.1605C39.1411 17.3868 44.661 16 51.0597 16C56.5795 16 61.4129 17.0024 65.5597 19.0071C69.7064 21.0118 72.9882 23.8267 75.4048 27.4517C77.8215 31.0767 79.1534 35.3333 79.4006 40.2216H62.8409C62.3741 37.0634 61.1383 34.5232 59.1335 32.6009C57.1563 30.651 54.5611 29.6761 51.348 29.6761C48.6293 29.6761 46.2538 30.4176 44.2216 31.9006C42.2169 33.3561 40.6515 35.4844 39.5256 38.2855C38.3996 41.0866 37.8366 44.4782 37.8366 48.4602C37.8366 52.4972 38.3859 55.9299 39.4844 58.7585C40.6103 61.5871 42.1894 63.7429 44.2216 65.2258C46.2538 66.7088 48.6293 67.4503 51.348 67.4503C53.3527 67.4503 55.1515 67.0383 56.7443 66.2145C58.3646 65.3906 59.6965 64.196 60.7401 62.6307C61.8111 61.0379 62.5114 59.1293 62.8409 56.9048H79.4006C79.1259 61.7382 77.8078 65.9948 75.446 69.6747C73.1117 73.3272 69.8849 76.1832 65.7656 78.2429C61.6463 80.3026 56.7718 81.3324 51.142 81.3324Z" fill="white"/>
</g>
<defs>
<filter id="filter0_i_55_9" x="20" y="16" width="59.4006" height="66.3324" filterUnits="userSpaceOnUse" color-interpolation-filters="sRGB">
<feFlood flood-opacity="0" result="BackgroundImageFix"/>
<feBlend mode="normal" in="SourceGraphic" in2="BackgroundImageFix" result="shape"/>
<feColorMatrix in="SourceAlpha" type="matrix" values="0 0 0 0 0 0 0 0 0 0 0 0 0 0 0 0 0 0 127 0" result="hardAlpha"/>
<feOffset dy="1"/>
<feGaussianBlur stdDeviation="0.5"/>
<feComposite in2="hardAlpha" operator="arithmetic" k2="-1" k3="1"/>
<feColorMatrix type="matrix" values="0 0 0 0 0 0 0 0 0 0 0 0 0 0 0 0 0 0 0.25 0"/>
<feBlend mode="normal" in2="shape" result="effect1_innerShadow_55_9"/>
</filter>
</defs>
</svg>
