<svg width="66" height="66" viewBox="0 0 66 66" fill="none" xmlns="http://www.w3.org/2000/svg">
<path d="M60 0H6C2.68629 0 0 3.69365 0 8.25V57.75C0 62.3064 2.68629 66 6 66H60C63.3137 66 66 62.3064 66 57.75V8.25C66 3.69365 63.3137 0 60 0Z" fill="#D94141"/>
<g filter="url(#filter0_i_55_33)">
<path d="M35.3565 57.9993C30.4957 57.9993 26.3146 56.9695 22.8132 54.9098C19.3324 52.8295 16.6548 49.946 14.7805 46.2592C12.9268 42.5724 12 38.3295 12 33.5305C12 28.6697 12.9371 24.4062 14.8114 20.7401C16.7063 17.0533 19.3942 14.18 22.875 12.1204C26.3558 10.0401 30.4957 9 35.2947 9C39.4347 9 43.0597 9.75177 46.1697 11.2553C49.2798 12.7589 51.7411 14.87 53.5536 17.5888C55.3661 20.3075 56.3651 23.5 56.5504 27.1662H44.1307C43.7805 24.7976 42.8537 22.8924 41.3501 21.4506C39.8672 19.9883 37.9208 19.2571 35.511 19.2571C33.4719 19.2571 31.6903 19.8132 30.1662 20.9254C28.6626 22.017 27.4886 23.6133 26.6442 25.7141C25.7997 27.815 25.3775 30.3587 25.3775 33.3452C25.3775 36.3729 25.7894 38.9474 26.6133 41.0689C27.4577 43.1903 28.642 44.8072 30.1662 45.9194C31.6903 47.0316 33.4719 47.5877 35.511 47.5877C37.0146 47.5877 38.3636 47.2788 39.5582 46.6609C40.7734 46.043 41.7724 45.147 42.555 43.973C43.3583 42.7784 43.8835 41.3469 44.1307 39.6786H56.5504C56.3445 43.3036 55.3558 46.4961 53.5845 49.256C51.8338 51.9954 49.4137 54.1374 46.3242 55.6822C43.2347 57.2269 39.5788 57.9993 35.3565 57.9993Z" fill="white"/>
</g>
<defs>
<filter id="filter0_i_55_33" x="12" y="9" width="44.5504" height="49.9993" filterUnits="userSpaceOnUse" color-interpolation-filters="sRGB">
<feFlood flood-opacity="0" result="BackgroundImageFix"/>
<feBlend mode="normal" in="SourceGraphic" in2="BackgroundImageFix" result="shape"/>
<feColorMatrix in="SourceAlpha" type="matrix" values="0 0 0 0 0 0 0 0 0 0 0 0 0 0 0 0 0 0 127 0" result="hardAlpha"/>
<feOffset dy="1"/>
<feGaussianBlur stdDeviation="0.5"/>
<feComposite in2="hardAlpha" operator="arithmetic" k2="-1" k3="1"/>
<feColorMatrix type="matrix" values="0 0 0 0 0 0 0 0 0 0 0 0 0 0 0 0 0 0 0.25 0"/>
<feBlend mode="normal" in2="shape" result="effect1_innerShadow_55_33"/>
</filter>
</defs>
</svg>
