<svg width="48" height="48" viewBox="0 0 48 48" fill="none" xmlns="http://www.w3.org/2000/svg">
<path d="M42 2H6C3.79086 2 2 4.46243 2 7.5V40.5C2 43.5376 3.79086 46 6 46H42C44.2091 46 46 43.5376 46 40.5V7.5C46 4.46243 44.2091 2 42 2Z" fill="#D94141"/>
<g filter="url(#filter0_i_55_9)">
<path d="M25.571 40.6662C22.3305 40.6662 19.5431 39.9796 17.2088 38.6065C14.8883 37.2197 13.1032 35.2973 11.8537 32.8395C10.6179 30.3816 10 27.553 10 24.3537C10 21.1132 10.6248 18.2708 11.8743 15.8267C13.1375 13.3688 14.9295 11.4534 17.25 10.0803C19.5705 8.69342 22.3305 8 25.5298 8C28.2898 8 30.7064 8.50118 32.7798 9.50355C34.8532 10.5059 36.4941 11.9134 37.7024 13.7259C38.9107 15.5384 39.5767 17.6667 39.7003 20.1108H31.4205C31.187 18.5317 30.5691 17.2616 29.5668 16.3004C28.5781 15.3255 27.2805 14.8381 25.674 14.8381C24.3146 14.8381 23.1269 15.2088 22.1108 15.9503C21.1084 16.678 20.3258 17.7422 19.7628 19.1428C19.1998 20.5433 18.9183 22.2391 18.9183 24.2301C18.9183 26.2486 19.1929 27.965 19.7422 29.3793C20.3052 30.7936 21.0947 31.8714 22.1108 32.6129C23.1269 33.3544 24.3146 33.7251 25.674 33.7251C26.6764 33.7251 27.5758 33.5192 28.3722 33.1072C29.1823 32.6953 29.8482 32.098 30.37 31.3153C30.9055 30.5189 31.2557 29.5646 31.4205 28.4524H39.7003C39.563 30.8691 38.9039 32.9974 37.723 34.8374C36.5559 36.6636 34.9425 38.0916 32.8828 39.1214C30.8232 40.1513 28.3859 40.6662 25.571 40.6662Z" fill="white"/>
</g>
<defs>
<filter id="filter0_i_55_9" x="10" y="8" width="29.7003" height="33.6662" filterUnits="userSpaceOnUse" color-interpolation-filters="sRGB">
<feFlood flood-opacity="0" result="BackgroundImageFix"/>
<feBlend mode="normal" in="SourceGraphic" in2="BackgroundImageFix" result="shape"/>
<feColorMatrix in="SourceAlpha" type="matrix" values="0 0 0 0 0 0 0 0 0 0 0 0 0 0 0 0 0 0 127 0" result="hardAlpha"/>
<feOffset dy="1"/>
<feGaussianBlur stdDeviation="0.5"/>
<feComposite in2="hardAlpha" operator="arithmetic" k2="-1" k3="1"/>
<feColorMatrix type="matrix" values="0 0 0 0 0 0 0 0 0 0 0 0 0 0 0 0 0 0 0.25 0"/>
<feBlend mode="normal" in2="shape" result="effect1_innerShadow_55_9"/>
</filter>
</defs>
</svg>
