<svg width="168" height="168" viewBox="0 0 168 168" fill="none" xmlns="http://www.w3.org/2000/svg">
<path d="M147 7H21C13.268 7 7 15.6185 7 26.25V141.75C7 152.381 13.268 161 21 161H147C154.732 161 161 152.381 161 141.75V26.25C161 15.6185 154.732 7 147 7Z" fill="#D94141"/>
<g filter="url(#filter0_i_55_9)">
<path d="M89.4986 142.332C78.1567 142.332 68.4008 139.929 60.2308 135.123C52.1089 130.269 45.8613 123.541 41.4879 114.938C37.1626 106.336 35 96.4356 35 85.2379C35 73.8961 37.1867 63.9479 41.56 55.3935C45.9814 46.791 52.2531 40.0868 60.375 35.2809C68.4969 30.427 78.1567 28 89.3544 28C99.0142 28 107.473 29.7541 114.729 33.2624C121.986 36.7707 127.729 41.6967 131.958 48.0405C136.188 54.3842 138.518 61.8333 138.951 70.3878H109.972C109.155 64.861 106.992 60.4156 103.484 57.0515C100.023 53.6393 95.4819 51.9332 89.859 51.9332C85.1012 51.9332 80.9441 53.2308 77.3878 55.826C73.8795 58.3731 71.1401 62.0977 69.1697 66.9996C67.1993 71.9016 66.2141 77.8369 66.2141 84.8054C66.2141 91.87 67.1753 97.8774 69.0977 102.827C71.0681 107.777 73.8314 111.55 77.3878 114.145C80.9441 116.74 85.1012 118.038 89.859 118.038C93.3673 118.038 96.5151 117.317 99.3026 115.875C102.138 114.434 104.469 112.343 106.295 109.604C108.169 106.816 109.395 103.476 109.972 99.5834H138.951C138.47 108.042 136.164 115.491 132.031 121.931C127.946 128.323 122.299 133.321 115.09 136.925C107.881 140.529 99.3506 142.332 89.4986 142.332Z" fill="white"/>
</g>
<defs>
<filter id="filter0_i_55_9" x="35" y="28" width="103.951" height="115.332" filterUnits="userSpaceOnUse" color-interpolation-filters="sRGB">
<feFlood flood-opacity="0" result="BackgroundImageFix"/>
<feBlend mode="normal" in="SourceGraphic" in2="BackgroundImageFix" result="shape"/>
<feColorMatrix in="SourceAlpha" type="matrix" values="0 0 0 0 0 0 0 0 0 0 0 0 0 0 0 0 0 0 127 0" result="hardAlpha"/>
<feOffset dy="1"/>
<feGaussianBlur stdDeviation="0.5"/>
<feComposite in2="hardAlpha" operator="arithmetic" k2="-1" k3="1"/>
<feColorMatrix type="matrix" values="0 0 0 0 0 0 0 0 0 0 0 0 0 0 0 0 0 0 0.25 0"/>
<feBlend mode="normal" in2="shape" result="effect1_innerShadow_55_9"/>
</filter>
</defs>
</svg>
