<svg width="192" height="192" viewBox="0 0 192 192" fill="none" xmlns="http://www.w3.org/2000/svg">
<path d="M168 8H24C15.1634 8 8 17.8497 8 30V162C8 174.15 15.1634 184 24 184H168C176.837 184 184 174.15 184 162V30C184 17.8497 176.837 8 168 8Z" fill="#D94141"/>
<g filter="url(#filter0_i_55_9)">
<path d="M102.284 162.665C89.322 162.665 78.1723 159.919 68.8352 154.426C59.553 148.879 52.4129 141.189 47.4148 131.358C42.4716 121.527 40 110.212 40 97.4148C40 84.4526 42.4991 73.0833 47.4972 63.3068C52.5502 53.4754 59.7178 45.8134 69 40.321C78.2822 34.7737 89.322 32 102.119 32C113.159 32 122.826 34.0047 131.119 38.0142C139.413 42.0237 145.976 47.6534 150.81 54.9034C155.643 62.1534 158.307 70.6667 158.801 80.4432H125.682C124.748 74.1269 122.277 69.0464 118.267 65.2017C114.312 61.3021 109.122 59.3523 102.696 59.3523C97.2585 59.3523 92.5076 60.8352 88.4432 63.8011C84.4337 66.7121 81.303 70.9687 79.0511 76.571C76.7992 82.1733 75.6733 88.9564 75.6733 96.9205C75.6733 104.994 76.7718 111.86 78.9687 117.517C81.2206 123.174 84.3788 127.486 88.4432 130.452C92.5076 133.418 97.2585 134.901 102.696 134.901C106.705 134.901 110.303 134.077 113.489 132.429C116.729 130.781 119.393 128.392 121.48 125.261C123.622 122.076 125.023 118.259 125.682 113.81H158.801C158.252 123.476 155.616 131.99 150.892 139.349C146.223 146.654 139.77 152.366 131.531 156.486C123.293 160.605 113.544 162.665 102.284 162.665Z" fill="white"/>
</g>
<defs>
<filter id="filter0_i_55_9" x="40" y="32" width="118.801" height="131.665" filterUnits="userSpaceOnUse" color-interpolation-filters="sRGB">
<feFlood flood-opacity="0" result="BackgroundImageFix"/>
<feBlend mode="normal" in="SourceGraphic" in2="BackgroundImageFix" result="shape"/>
<feColorMatrix in="SourceAlpha" type="matrix" values="0 0 0 0 0 0 0 0 0 0 0 0 0 0 0 0 0 0 127 0" result="hardAlpha"/>
<feOffset dy="1"/>
<feGaussianBlur stdDeviation="0.5"/>
<feComposite in2="hardAlpha" operator="arithmetic" k2="-1" k3="1"/>
<feColorMatrix type="matrix" values="0 0 0 0 0 0 0 0 0 0 0 0 0 0 0 0 0 0 0.25 0"/>
<feBlend mode="normal" in2="shape" result="effect1_innerShadow_55_9"/>
</filter>
</defs>
</svg>
