<svg width="320" height="74" viewBox="0 0 320 74" fill="none" xmlns="http://www.w3.org/2000/svg">
<path d="M0.707825 7.66665C0.707825 3.61656 4.02796 0.333313 8.12355 0.333313H312.168C316.264 0.333313 319.584 3.61656 319.584 7.66665V66.3333C319.584 70.3834 316.264 73.6667 312.168 73.6667H8.12356C4.02796 73.6667 0.707825 70.3834 0.707825 66.3333V7.66665Z" fill="#D94141"/>
<g filter="url(#filter0_i_55_38)">
<path d="M55.6883 31.9051H46.9691C46.8098 30.8075 46.4847 29.8326 45.9937 28.9803C45.5026 28.1152 44.8722 27.3791 44.1025 26.7722C43.3328 26.1653 42.4436 25.7005 41.435 25.3777C40.4396 25.0548 39.358 24.8934 38.1902 24.8934C36.08 24.8934 34.242 25.4035 32.676 26.4236C31.11 27.4308 29.8956 28.9029 29.033 30.8398C28.1704 32.7638 27.7391 35.101 27.7391 37.8515C27.7391 40.6794 28.1704 43.0553 29.033 44.9793C29.9089 46.9034 31.1299 48.3561 32.6959 49.3374C34.2619 50.3188 36.0734 50.8095 38.1304 50.8095C39.285 50.8095 40.3534 50.661 41.3355 50.364C42.3308 50.067 43.2133 49.6344 43.9831 49.0663C44.7528 48.4852 45.3898 47.7814 45.8941 46.955C46.4117 46.1286 46.77 45.186 46.9691 44.1271L55.6883 44.1658C55.4627 45.9865 54.8987 47.7427 53.9962 49.4343C53.1071 51.1129 51.906 52.6173 50.3931 53.9473C48.8934 55.2644 47.1018 56.3104 45.0182 57.0851C42.9479 57.847 40.6055 58.2279 37.9911 58.2279C34.3548 58.2279 31.1033 57.4273 28.2367 55.8261C25.3834 54.2249 23.1273 51.9071 21.4684 48.8726C19.8228 45.838 18.9999 42.1643 18.9999 37.8515C18.9999 33.5257 19.836 29.8455 21.5082 26.811C23.1804 23.7765 25.4498 21.4651 28.3164 19.8768C31.1829 18.2756 34.4079 17.475 37.9911 17.475C40.3534 17.475 42.5431 17.7978 44.5604 18.4435C46.5909 19.0891 48.3891 20.0317 49.9551 21.2714C51.5211 22.4981 52.7952 24.0024 53.7773 25.7844C54.7726 27.5664 55.4096 29.6066 55.6883 31.9051Z" fill="white"/>
<path d="M70.4294 58.2473C68.4785 58.2473 66.74 57.918 65.2138 57.2595C63.6876 56.588 62.4799 55.6002 61.5907 54.296C60.7148 52.9789 60.2769 51.3389 60.2769 49.3762C60.2769 47.7233 60.5887 46.3352 61.2125 45.2118C61.8362 44.0884 62.6856 43.1845 63.7606 42.5001C64.8355 41.8157 66.0565 41.2992 67.4234 40.9505C68.8036 40.6019 70.2502 40.3565 71.7631 40.2145C73.5415 40.0337 74.9748 39.8659 76.063 39.7109C77.1512 39.543 77.9409 39.2977 78.4319 38.9749C78.923 38.6521 79.1685 38.1743 79.1685 37.5415V37.4253C79.1685 36.1986 78.7703 35.2495 77.9741 34.5781C77.1911 33.9066 76.0763 33.5709 74.6297 33.5709C73.1035 33.5709 71.8892 33.9001 70.9868 34.5587C70.0843 35.2043 69.4871 36.0178 69.1951 36.9992L61.3518 36.3794C61.75 34.5716 62.533 33.0091 63.7008 31.692C64.8687 30.362 66.375 29.3419 68.2197 28.6317C70.0777 27.9086 72.2276 27.547 74.6695 27.547C76.3682 27.547 77.994 27.7407 79.5467 28.1281C81.1127 28.5155 82.4996 29.1159 83.7072 29.9294C84.9282 30.7429 85.8904 31.7889 86.5937 33.0672C87.2971 34.3327 87.6488 35.85 87.6488 37.619V57.6856H79.6064V53.5599H79.3675C78.8765 54.4897 78.2196 55.3096 77.3968 56.0198C76.5739 56.7171 75.5852 57.2659 74.4306 57.6662C73.276 58.0536 71.9423 58.2473 70.4294 58.2473ZM72.858 52.5527C74.1055 52.5527 75.207 52.3138 76.1625 51.8361C77.1181 51.3454 77.8679 50.6868 78.412 49.8604C78.9561 49.034 79.2282 48.0978 79.2282 47.0519V43.8947C78.9628 44.0625 78.5978 44.2175 78.1333 44.3595C77.6821 44.4887 77.1712 44.6113 76.6005 44.7275C76.0298 44.8308 75.4592 44.9277 74.8885 45.0181C74.3178 45.0956 73.8003 45.1666 73.3358 45.2311C72.3404 45.3732 71.4712 45.5992 70.728 45.9091C69.9848 46.219 69.4075 46.6386 68.9961 47.1681C68.5847 47.6846 68.3789 48.3302 68.3789 49.105C68.3789 50.2284 68.797 51.0871 69.6331 51.6811C70.4824 52.2622 71.5574 52.5527 72.858 52.5527Z" fill="white"/>
<path d="M102.708 18.0173V57.6856H94.228V18.0173H102.708Z" fill="white"/>
<path d="M123.317 58.2667C120.185 58.2667 117.491 57.621 115.235 56.3297C112.992 55.0255 111.267 53.2177 110.059 50.9063C108.865 48.5949 108.267 45.9349 108.267 42.9262C108.267 39.8788 108.871 37.2058 110.079 34.9073C111.3 32.5959 113.032 30.7946 115.275 29.5033C117.517 28.1991 120.185 27.547 123.277 27.547C125.945 27.547 128.28 28.0183 130.284 28.961C132.288 29.9036 133.874 31.2272 135.042 32.9317C136.21 34.6362 136.854 36.6376 136.973 38.9361H128.971C128.745 37.4512 128.148 36.2567 127.179 35.3528C126.223 34.436 124.969 33.9776 123.416 33.9776C122.103 33.9776 120.955 34.3263 119.973 35.0235C119.004 35.7079 118.247 36.7087 117.703 38.0258C117.159 39.3429 116.887 40.9376 116.887 42.81C116.887 44.7082 117.152 46.3223 117.683 47.6523C118.227 48.9823 118.991 49.996 119.973 50.6933C120.955 51.3906 122.103 51.7392 123.416 51.7392C124.385 51.7392 125.255 51.5455 126.024 51.1581C126.807 50.7708 127.451 50.209 127.955 49.473C128.473 48.7241 128.811 47.8266 128.971 46.7807H136.973C136.84 49.0533 136.203 51.0548 135.062 52.7852C133.934 54.5026 132.375 55.8455 130.384 56.814C128.393 57.7824 126.038 58.2667 123.317 58.2667Z" fill="white"/>
<path d="M162.011 45.0181V27.9344H170.491V57.6856H162.349V52.2816H162.031C161.341 54.0248 160.193 55.4258 158.587 56.4847C156.994 57.5435 155.05 58.073 152.754 58.073C150.71 58.073 148.912 57.621 147.359 56.7171C145.807 55.8132 144.592 54.5284 143.717 52.8626C142.854 51.1969 142.416 49.2018 142.403 46.8775V27.9344H150.883V45.4055C150.896 47.1616 151.381 48.5497 152.336 49.5699C153.292 50.59 154.572 51.1 156.178 51.1C157.2 51.1 158.156 50.8741 159.045 50.4221C159.934 49.9572 160.651 49.2729 161.195 48.369C161.752 47.4651 162.024 46.3481 162.011 45.0181Z" fill="white"/>
<path d="M185.755 18.0173V57.6856H177.275V18.0173H185.755Z" fill="white"/>
<path d="M201.267 58.2473C199.316 58.2473 197.578 57.918 196.052 57.2595C194.526 56.588 193.318 55.6002 192.429 54.296C191.553 52.9789 191.115 51.3389 191.115 49.3762C191.115 47.7233 191.427 46.3352 192.05 45.2118C192.674 44.0884 193.524 43.1845 194.599 42.5001C195.673 41.8157 196.894 41.2992 198.261 40.9505C199.642 40.6019 201.088 40.3565 202.601 40.2145C204.379 40.0337 205.813 39.8659 206.901 39.7109C207.989 39.543 208.779 39.2977 209.27 38.9749C209.761 38.6521 210.006 38.1743 210.006 37.5415V37.4253C210.006 36.1986 209.608 35.2495 208.812 34.5781C208.029 33.9066 206.914 33.5709 205.468 33.5709C203.941 33.5709 202.727 33.9001 201.825 34.5587C200.922 35.2043 200.325 36.0178 200.033 36.9992L192.19 36.3794C192.588 34.5716 193.371 33.0091 194.539 31.692C195.707 30.362 197.213 29.3419 199.058 28.6317C200.916 27.9086 203.066 27.547 205.507 27.547C207.206 27.547 208.832 27.7407 210.385 28.1281C211.951 28.5155 213.338 29.1159 214.545 29.9294C215.766 30.7429 216.728 31.7889 217.432 33.0672C218.135 34.3327 218.487 35.85 218.487 37.619V57.6856H210.444V53.5599H210.206C209.714 54.4897 209.058 55.3096 208.235 56.0198C207.412 56.7171 206.423 57.2659 205.269 57.6662C204.114 58.0536 202.78 58.2473 201.267 58.2473ZM203.696 52.5527C204.943 52.5527 206.045 52.3138 207.001 51.8361C207.956 51.3454 208.706 50.6868 209.25 49.8604C209.794 49.034 210.066 48.0978 210.066 47.0519V43.8947C209.801 44.0625 209.436 44.2175 208.971 44.3595C208.52 44.4887 208.009 44.6113 207.438 44.7275C206.868 44.8308 206.297 44.9277 205.726 45.0181C205.156 45.0956 204.638 45.1666 204.174 45.2311C203.178 45.3732 202.309 45.5992 201.566 45.9091C200.823 46.219 200.245 46.6386 199.834 47.1681C199.423 47.6846 199.217 48.3302 199.217 49.105C199.217 50.2284 199.635 51.0871 200.471 51.6811C201.32 52.2622 202.395 52.5527 203.696 52.5527Z" fill="white"/>
<path d="M230.023 58.1892C228.709 58.1892 227.581 57.7372 226.639 56.8333C225.71 55.9165 225.245 54.8189 225.245 53.5406C225.245 52.2751 225.71 51.1904 226.639 50.2865C227.581 49.3826 228.709 48.9307 230.023 48.9307C231.297 48.9307 232.412 49.3826 233.367 50.2865C234.323 51.1904 234.8 52.2751 234.8 53.5406C234.8 54.3928 234.575 55.174 234.124 55.8842C233.686 56.5815 233.108 57.1432 232.392 57.5694C231.675 57.9826 230.885 58.1892 230.023 58.1892Z" fill="white"/>
<path d="M250.482 58.2473C248.531 58.2473 246.793 57.918 245.267 57.2595C243.74 56.588 242.533 55.6002 241.643 54.296C240.768 52.9789 240.33 51.3389 240.33 49.3762C240.33 47.7233 240.641 46.3352 241.265 45.2118C241.889 44.0884 242.738 43.1845 243.813 42.5001C244.888 41.8157 246.109 41.2992 247.476 40.9505C248.856 40.6019 250.303 40.3565 251.816 40.2145C253.594 40.0337 255.028 39.8659 256.116 39.7109C257.204 39.543 257.994 39.2977 258.485 38.9749C258.976 38.6521 259.221 38.1743 259.221 37.5415V37.4253C259.221 36.1986 258.823 35.2495 258.027 34.5781C257.244 33.9066 256.129 33.5709 254.682 33.5709C253.156 33.5709 251.942 33.9001 251.04 34.5587C250.137 35.2043 249.54 36.0178 249.248 36.9992L241.405 36.3794C241.803 34.5716 242.586 33.0091 243.754 31.692C244.921 30.362 246.428 29.3419 248.272 28.6317C250.13 27.9086 252.28 27.547 254.722 27.547C256.421 27.547 258.047 27.7407 259.599 28.1281C261.165 28.5155 262.552 29.1159 263.76 29.9294C264.981 30.7429 265.943 31.7889 266.646 33.0672C267.35 34.3327 267.702 35.85 267.702 37.619V57.6856H259.659V53.5599H259.42C258.929 54.4897 258.272 55.3096 257.45 56.0198C256.627 56.7171 255.638 57.2659 254.483 57.6662C253.329 58.0536 251.995 58.2473 250.482 58.2473ZM252.911 52.5527C254.158 52.5527 255.26 52.3138 256.215 51.8361C257.171 51.3454 257.921 50.6868 258.465 49.8604C259.009 49.034 259.281 48.0978 259.281 47.0519V43.8947C259.016 44.0625 258.651 44.2175 258.186 44.3595C257.735 44.4887 257.224 44.6113 256.653 44.7275C256.083 44.8308 255.512 44.9277 254.941 45.0181C254.371 45.0956 253.853 45.1666 253.389 45.2311C252.393 45.3732 251.524 45.5992 250.781 45.9091C250.038 46.219 249.46 46.6386 249.049 47.1681C248.637 47.6846 248.432 48.3302 248.432 49.105C248.432 50.2284 248.85 51.0871 249.686 51.6811C250.535 52.2622 251.61 52.5527 252.911 52.5527Z" fill="white"/>
<path d="M288.216 58.2667C285.07 58.2667 282.363 57.6468 280.094 56.4072C277.837 55.1547 276.099 53.3856 274.878 51.1C273.657 48.8015 273.047 46.0834 273.047 42.9456C273.047 39.8852 273.657 37.1994 274.878 34.888C276.099 32.5766 277.818 30.7752 280.034 29.4839C282.263 28.1927 284.878 27.547 287.877 27.547C289.894 27.547 291.772 27.8634 293.511 28.4961C295.263 29.1159 296.789 30.0521 298.089 31.3046C299.403 32.5572 300.425 34.1326 301.155 36.0307C301.885 37.916 302.25 40.1241 302.25 42.655V44.9212L284.265 44.7953V42.3015V39.8078H294.267C294.267 38.6198 294.002 37.5674 293.471 36.6506C292.94 35.7338 292.204 35.0171 291.261 34.5006C290.332 33.9711 289.251 33.7064 288.017 33.7064C286.729 33.7064 285.588 33.997 284.593 34.5781C283.61 35.1462 282.841 35.9145 282.283 36.883C281.726 37.8385 281.441 38.9039 281.427 40.0789V44.9406C281.427 46.4127 281.706 47.6846 282.263 48.7564C282.834 49.8281 283.637 50.6545 284.672 51.2356C285.707 51.8167 286.935 52.1072 288.355 52.1072C289.297 52.1072 290.16 51.9781 290.943 51.7199C291.726 51.4616 292.396 51.0742 292.953 50.5577C293.511 50.0412 293.936 49.4085 294.227 48.6595H302.25C301.852 50.4931 300.856 52.5979 299.622 53.9667C298.401 55.3225 296.822 56.3814 294.884 57.1432C292.96 57.8922 290.737 58.2667 288.216 58.2667Z" fill="white"/>
</g>
<defs>
<filter id="filter0_i_55_38" x="18.9999" y="17.475" width="283.25" height="41.7917" filterUnits="userSpaceOnUse" color-interpolation-filters="sRGB">
<feFlood flood-opacity="0" result="BackgroundImageFix"/>
<feBlend mode="normal" in="SourceGraphic" in2="BackgroundImageFix" result="shape"/>
<feColorMatrix in="SourceAlpha" type="matrix" values="0 0 0 0 0 0 0 0 0 0 0 0 0 0 0 0 0 0 127 0" result="hardAlpha"/>
<feOffset dy="1"/>
<feGaussianBlur stdDeviation="0.5"/>
<feComposite in2="hardAlpha" operator="arithmetic" k2="-1" k3="1"/>
<feColorMatrix type="matrix" values="0 0 0 0 0 0 0 0 0 0 0 0 0 0 0 0 0 0 0.25 0"/>
<feBlend mode="normal" in2="shape" result="effect1_innerShadow_55_38"/>
</filter>
</defs>
</svg>
