<svg width="18" height="19" viewBox="0 0 18 19" fill="none" xmlns="http://www.w3.org/2000/svg">
<path d="M1.33121 3.52156C1.05506 3.52156 0.831207 3.74541 0.831207 4.02156C0.831207 4.2977 1.05506 4.52156 1.33121 4.52156V3.52156ZM16.6624 4.52156C16.9385 4.52156 17.1624 4.2977 17.1624 4.02156C17.1624 3.74541 16.9385 3.52156 16.6624 3.52156V4.52156ZM14.9589 4.02156H15.4589C15.4589 3.74541 15.2351 3.52156 14.9589 3.52156V4.02156ZM3.03467 15.9064H2.53467H3.03467ZM5.08987 4.02156C5.08987 4.2977 5.31373 4.52156 5.58987 4.52156C5.86601 4.52156 6.08987 4.2977 6.08987 4.02156H5.08987ZM7.29333 0.625885V0.125885V0.625885ZM10.7003 0.625885V0.125885V0.625885ZM11.9037 4.02156C11.9037 4.2977 12.1276 4.52156 12.4037 4.52156C12.6799 4.52156 12.9037 4.2977 12.9037 4.02156H11.9037ZM7.79333 8.26614C7.79333 7.99 7.56948 7.76614 7.29333 7.76614C7.01719 7.76614 6.79333 7.99 6.79333 8.26614H7.79333ZM6.79333 13.3596C6.79333 13.6358 7.01719 13.8596 7.29333 13.8596C7.56948 13.8596 7.79333 13.6358 7.79333 13.3596H6.79333ZM11.2003 8.26614C11.2003 7.99 10.9764 7.76614 10.7003 7.76614C10.4241 7.76614 10.2003 7.99 10.2003 8.26614H11.2003ZM10.2003 13.3596C10.2003 13.6358 10.4241 13.8596 10.7003 13.8596C10.9764 13.8596 11.2003 13.6358 11.2003 13.3596H10.2003ZM1.33121 4.52156H3.03467V3.52156H1.33121V4.52156ZM3.03467 4.52156H16.6624V3.52156H3.03467V4.52156ZM14.4589 4.02156V15.9064H15.4589V4.02156H14.4589ZM14.4589 15.9064C14.4589 16.2236 14.3325 16.528 14.107 16.7528L14.813 17.4611C15.2264 17.049 15.4589 16.4898 15.4589 15.9064H14.4589ZM14.107 16.7528C13.8815 16.9776 13.5752 17.1042 13.2555 17.1042V18.1042C13.8393 18.1042 14.3996 17.8731 14.813 17.4611L14.107 16.7528ZM13.2555 17.1042H4.73814V18.1042H13.2555V17.1042ZM4.73814 17.1042C4.41843 17.1042 4.11214 16.9776 3.88657 16.7528L3.18064 17.4611C3.59399 17.8731 4.15427 18.1042 4.73814 18.1042V17.1042ZM3.88657 16.7528C3.66106 16.528 3.53467 16.2236 3.53467 15.9064H2.53467C2.53467 16.4898 2.76723 17.049 3.18064 17.4611L3.88657 16.7528ZM3.53467 15.9064V4.02156H2.53467V15.9064H3.53467ZM3.03467 4.52156H14.9589V3.52156H3.03467V4.52156ZM6.08987 4.02156V2.32372H5.08987V4.02156H6.08987ZM6.08987 2.32372C6.08987 2.00657 6.21626 1.70207 6.44177 1.47731L5.73583 0.769031C5.32242 1.18108 5.08987 1.74028 5.08987 2.32372H6.08987ZM6.44177 1.47731C6.66734 1.25249 6.97362 1.12589 7.29333 1.12589V0.125885C6.70947 0.125885 6.14919 0.357041 5.73583 0.769031L6.44177 1.47731ZM7.29333 1.12589H10.7003V0.125885H7.29333V1.12589ZM10.7003 1.12589C11.02 1.12589 11.3263 1.25249 11.5518 1.47731L12.2578 0.769031C11.8444 0.357041 11.2841 0.125885 10.7003 0.125885V1.12589ZM11.5518 1.47731C11.7773 1.70207 11.9037 2.00657 11.9037 2.32372H12.9037C12.9037 1.74028 12.6712 1.18108 12.2578 0.769031L11.5518 1.47731ZM11.9037 2.32372V4.02156H12.9037V2.32372H11.9037ZM6.79333 8.26614V13.3596H7.79333V8.26614H6.79333ZM10.2003 8.26614V13.3596H11.2003V8.26614H10.2003Z" fill="white"/>
</svg>
